HIERARCHY
ROOT Hips
{
 OFFSET 0.000000 0.000000 0.000000
 CHANNELS 6 Xposition Yposition Zposition Yrotation Xrotation Zrotation
 JOINT Chest
 {
  OFFSET 0.000000 9.581000 -0.001100
  CHANNELS 3 Yrotation Xrotation Zrotation
  JOINT Chest2
  {
   OFFSET 0.000000 9.561100 0.002200
   CHANNELS 3 Yrotation Xrotation Zrotation
   JOINT Chest3
   {
    OFFSET 0.000000 9.521100 0.000000
    CHANNELS 3 Yrotation Xrotation Zrotation
    JOINT Chest4
    {
     OFFSET 0.000000 9.511400 0.000000
     CHANNELS 3 Yrotation Xrotation Zrotation
     JOINT Neck
     {
      OFFSET 0.000000 14.375100 0.000000
      CHANNELS 3 Yrotation Xrotation Zrotation
      JOINT Head
      {
       OFFSET 0.000000 8.901200 0.004600
       CHANNELS 3 Yrotation Xrotation Zrotation
       End Site
       {
        OFFSET 0.000000 16.962200 0.002400
       }
      }
     }
     JOINT RightCollar
     {
      OFFSET -2.920100 9.518800 0.000000
      CHANNELS 3 Yrotation Xrotation Zrotation
      JOINT RightShoulder
      {
       OFFSET -13.664500 0.000000 0.000000
       CHANNELS 3 Yrotation Xrotation Zrotation
       JOINT RightElbow
       {
        OFFSET 0.000000 -29.999200 0.000000
        CHANNELS 3 Yrotation Xrotation Zrotation
        JOINT RightWrist
        {
         OFFSET 0.000000 -24.253600 0.000000
         CHANNELS 3 Yrotation Xrotation Zrotation
         End Site
         {
          OFFSET 0.000000 -17.918900 0.000000
         }
        }
       }
      }
     }
     JOINT LeftCollar
     {
      OFFSET 2.920100 9.518800 0.000000
      CHANNELS 3 Yrotation Xrotation Zrotation
      JOINT LeftShoulder
      {
       OFFSET 13.664500 0.000000 0.000000
       CHANNELS 3 Yrotation Xrotation Zrotation
       JOINT LeftElbow
       {
        OFFSET 0.000000 -29.999200 0.000000
        CHANNELS 3 Yrotation Xrotation Zrotation
        JOINT LeftWrist
        {
         OFFSET 0.000000 -24.253600 0.000000
         CHANNELS 3 Yrotation Xrotation Zrotation
         End Site
         {
          OFFSET 0.000000 -17.918900 0.000000
         }
        }
       }
      }
     }
    }
   }
  }
 }
 JOINT RightHip
 {
  OFFSET -7.797300 0.005300 0.000500
  CHANNELS 3 Yrotation Xrotation Zrotation
  JOINT RightKnee
  {
   OFFSET 0.000000 -40.663400 -0.000500
   CHANNELS 3 Yrotation Xrotation Zrotation
   JOINT RightAnkle
   {
    OFFSET 0.000000 -39.523700 -0.000900
    CHANNELS 3 Yrotation Xrotation Zrotation
    JOINT RightToe
    {
     OFFSET 0.000000 -6.418000 14.485300
     CHANNELS 3 Yrotation Xrotation Zrotation
     End Site
     {
      OFFSET 0.000000 -1.465200 6.326400
     }
    }
   }
  }
 }
 JOINT LeftHip
 {
  OFFSET 7.797300 0.005300 0.000500
  CHANNELS 3 Yrotation Xrotation Zrotation
  JOINT LeftKnee
  {
   OFFSET 0.000000 -40.663400 -0.000500
   CHANNELS 3 Yrotation Xrotation Zrotation
   JOINT LeftAnkle
   {
    OFFSET 0.000000 -39.523700 -0.000900
    CHANNELS 3 Yrotation Xrotation Zrotation
    JOINT LeftToe
    {
     OFFSET 0.000000 -6.418000 14.485300
     CHANNELS 3 Yrotation Xrotation Zrotation
     End Site
     {
      OFFSET 0.000000 -1.465200 6.326400
     }
    }
   }
  }
 }
}
MOTION
Frames: 15
Frame Time: 0.008333
0.000000 86.422400 0.000000 0.000000 -5.767877 0.000000 0.000000 11.653817 0.000000 0.000000 -5.885947 0.000000 0.000000 -0.000000 0.000000 0.000000 -0.000000 0.000000 0.000000 12.528835 0.000000 0.000000 0.711642 0.000000 0.000000 -0.000000 0.000000 0.000000 0.000000 -90.000000 0.000000 -2.309062 0.000000 0.000000 2.309062 0.000000 0.000000 -0.000000 0.000000 0.000000 -0.000000 90.000000 0.000000 -2.309062 0.000000 0.000000 2.309062 0.000000 0.000000 8.520406 0.000000 0.000000 1.905762 0.000000 -0.000000 -4.658285 0.000000 0.000000 -0.000000 0.000000 0.000000 8.520406 0.000000 0.000000 1.905762 0.000000 -0.000000 -4.658285 0.000000 0.000000 -0.000000 0.000000
-15.064066 126.910686 20.539790 -171.762115 -48.129643 -2.254898 -2.060001 26.274655 0.892735 -0.364776 4.396446 0.211806 -0.573578 6.989383 0.324302 -1.712570 21.567999 0.774311 1.505764 7.017324 -6.710808 3.392866 -18.363255 -7.992906 1.115539 2.695682 0.208341 2.410990 -6.476079 -11.852021 -104.759819 -69.542870 150.852639 13.275123 10.818502 -1.135567 -10.465211 -1.902997 -1.303084 -7.106765 -12.116816 11.999798 48.243225 -45.839530 -100.968611 0.954381 0.243170 -12.810370 -4.786063 -24.184793 -2.444650 -4.448716 77.966638 -3.105890 11.158724 -11.123684 1.405179 -0.000671 -0.001266 -0.000297 7.435035 4.332342 2.570419 129.647097 65.609685 150.104729 3.971994 12.781916 5.364570 0.002442 -0.002210 0.001082
-15.064552 126.910330 20.540111 -171.758616 -48.127355 -2.256989 -2.066078 26.279074 0.881309 -0.365712 4.397170 0.210285 -0.574948 6.990599 0.321842 -1.709809 21.563906 0.764536 1.411831 6.929454 -6.829224 3.321745 -18.461716 -8.115447 1.115119 2.683597 0.206256 2.419340 -6.469929 -11.837872 -104.914383 -69.568949 150.984518 13.301831 10.860721 -1.097315 -10.469539 -1.915917 -1.310374 -7.114852 -12.110657 12.005910 48.251291 -45.820499 -100.975196 0.945396 0.251146 -12.804333 -4.790420 -24.188852 -2.443731 -4.453332 77.974115 -3.115110 11.169556 -11.129401 1.406364 0.001066 -0.001428 0.000472 7.429087 4.333775 2.576171 129.646764 65.612531 150.102755 3.962569 12.782662 5.334773 0.000464 -0.000444 0.000206
-15.064687 126.909326 20.541112 -171.740250 -48.119494 -2.271625 -2.071002 26.277878 0.861338 -0.366749 4.394368 0.222399 -0.575202 6.990022 0.319763 -1.711044 21.563443 0.762487 1.313170 6.852332 -6.952839 3.248611 -18.547782 -8.236037 1.113124 2.670725 0.205141 2.427021 -6.470261 -11.853226 -105.029324 -69.567937 151.069321 13.329729 10.906161 -1.045392 -10.470808 -1.920619 -1.308118 -7.122024 -12.110964 12.003060 48.297034 -45.783117 -101.038152 0.913000 0.296092 -12.749946 -4.801626 -24.194545 -2.432821 -4.506547 77.979944 -3.158925 11.114801 -11.140448 1.404434 -0.001717 -0.001720 -0.000761 7.414667 4.327856 2.579460 129.642651 65.609185 150.099120 3.950932 12.776714 5.326782 -0.000823 0.000167 -0.000365
-15.065034 126.908877 20.541789 -171.735146 -48.117103 -2.275014 -2.074206 26.276481 0.854630 -0.364735 4.396900 0.214115 -0.579374 6.987123 0.299980 -1.695458 21.564791 0.793170 1.207781 6.785979 -7.086842 3.174430 -18.618875 -8.353796 1.113831 2.666642 0.206598 2.433237 -6.478036 -11.885061 -105.199050 -69.566198 151.192541 13.361623 10.964997 -0.967050 -10.474581 -1.926348 -1.317406 -7.123228 -12.105771 12.012114 48.350106 -45.763327 -101.101612 0.888338 0.342134 -12.704510 -4.804418 -24.196887 -2.431118 -4.502546 77.986852 -3.156099 11.109308 -11.149820 1.405346 -0.002236 -0.001507 -0.000991 7.409526 4.327390 2.581472 129.638593 65.604536 150.095661 3.937561 12.768926 5.320976 -0.000978 0.000252 -0.000433
-15.064866 126.908587 20.542485 -171.732274 -48.116911 -2.279115 -2.075936 26.276301 0.850148 -0.365953 4.396393 0.205726 -0.577882 6.984019 0.301501 -1.700725 21.566710 0.777930 1.112546 6.730987 -7.200400 3.097435 -18.672951 -8.467083 1.134218 2.638209 0.217640 2.417185 -6.466954 -11.904917 -105.427027 -69.569275 151.367209 13.403459 11.037737 -0.840915 -10.469664 -1.955834 -1.369479 -7.145072 -12.075423 12.064902 48.386535 -45.759400 -101.123900 0.866422 0.385021 -12.661314 -4.806135 -24.197638 -2.432489 -4.474868 77.992525 -3.131802 11.136684 -11.153368 1.404169 -0.001022 -0.000943 -0.000453 7.406663 4.330596 2.590080 129.641455 65.606668 150.097409 3.929106 12.762390 5.319569 0.000321 0.000756 0.000142
-15.064654 126.908268 20.543460 -171.731590 -48.117786 -2.280798 -2.076936 26.273364 0.838749 -0.365766 4.395154 0.203707 -0.575270 6.987569 0.311291 -1.708906 21.558844 0.754547 1.013028 6.690440 -7.311391 3.017896 -18.710261 -8.574456 1.196152 2.557143 0.260520 2.356959 -6.402739 -11.946697 -105.767446 -69.587147 151.627101 13.463590 11.124012 -0.639409 -10.459549 -1.961617 -1.390313 -7.162295 -12.069731 12.084806 48.388750 -45.760101 -101.113629 0.790591 0.405414 -12.608133 -4.806281 -24.198770 -2.431970 -4.470419 77.997496 -3.127428 11.149012 -11.152367 1.398447 -0.000920 -0.000576 -0.000408 7.399917 4.334231 2.597516 129.648684 65.609528 150.096713 3.919884 12.757337 5.323989 0.001309 -0.000032 0.000580
-15.065545 126.907985 20.544810 -171.725853 -48.120439 -2.278546 -2.084564 26.254372 0.805311 -0.366299 4.389575 0.198606 -0.572112 7.002159 0.323823 -1.713594 21.555092 0.741679 0.915146 6.662514 -7.417110 2.935753 -18.731149 -8.673951 1.268675 2.519582 0.318886 2.281894 -6.377708 -11.995456 -106.270192 -69.622680 152.017239 13.551229 11.223260 -0.338239 -10.441347 -1.960480 -1.414946 -7.168504 -12.096202 12.084193 48.332929 -45.757731 -101.053939 0.763198 0.426693 -12.582078 -4.806710 -24.198246 -2.436174 -4.475697 78.005189 -3.131626 11.134193 -11.157311 1.395395 -0.002018 -0.000656 -0.000894 7.394391 4.338337 2.593779 129.646765 65.610197 150.091798 3.913739 12.761259 5.302286 -0.001672 0.000975 -0.000741
-15.065762 126.908770 20.545424 -171.715137 -48.133235 -2.283794 -2.093490 26.253963 0.790166 -0.366114 4.379524 0.191789 -0.576763 6.973216 0.298520 -1.718123 21.552885 0.723607 0.830825 6.676916 -7.493315 2.849861 -18.736236 -8.763811 1.322174 2.560495 0.386505 2.225226 -6.400172 -12.029639 -106.935313 -69.661922 152.532429 13.680474 11.338453 0.090648 -10.406056 -1.917520 -1.426601 -7.175059 -12.099976 12.108225 48.436710 -45.782987 -101.163368 0.689537 0.514167 -12.491229 -4.813279 -24.183230 -2.440649 -4.440063 78.005807 -3.100453 11.150114 -11.162942 1.390861 0.000093 -0.000213 0.000041 7.387615 4.352308 2.594471 129.643584 65.611917 150.087372 3.913449 12.767254 5.285505 -0.002605 0.001454 -0.001154
-15.065606 126.909000 20.546782 -171.709262 -48.143635 -2.286326 -2.098278 26.259207 0.783686 -0.365046 4.355927 0.176853 -0.576559 6.965991 0.293629 -1.712702 21.580055 0.737855 0.720864 6.649866 -7.610037 2.759293 -18.727496 -8.843957 1.399175 2.593310 0.424135 2.118006 -6.469307 -12.079881 -107.736812 -69.687946 153.132532 13.861610 11.474866 0.683601 -10.395051 -1.917444 -1.447458 -7.171001 -12.121807 12.105002 48.520016 -45.833433 -101.238841 0.578871 0.567539 -12.401456 -4.815773 -24.173038 -2.446466 -4.399342 78.007552 -3.059353 11.159449 -11.165094 1.386281 0.001214 -0.000033 0.000538 7.384361 4.363171 2.594495 129.643247 65.612738 150.086967 3.914319 12.770819 5.273926 -0.002370 0.002036 -0.001050
-15.065497 126.909042 20.548577 -171.706231 -48.154613 -2.285669 -2.099113 26.246253 0.765446 -0.365537 4.347863 0.173835 -0.575951 6.957852 0.288522 -1.715397 21.574750 0.723299 0.620866 6.664602 -7.695847 2.665459 -18.706923 -8.916563 1.484320 2.709571 0.478876 1.994343 -6.597994 -12.118208 -108.607963 -69.681210 153.761620 14.095251 11.647092 1.477554 -10.376368 -1.877239 -1.449499 -7.171347 -12.148352 12.101600 48.609558 -45.924180 -101.295959 0.470853 0.600755 -12.321980 -4.816835 -24.163568 -2.452270 -4.360842 78.010040 -3.019874 11.156628 -11.168192 1.381557 0.001259 -0.000363 0.000558 7.387583 4.374372 2.592442 129.639743 65.613053 150.088201 3.915803 12.771406 5.268852 -0.001364 0.002553 -0.000605
-15.065325 126.908532 20.551103 -171.705318 -48.163170 -2.283181 -2.099551 26.199125 0.732203 -0.365792 4.378310 0.190495 -0.574799 6.962235 0.289926 -1.718245 21.544690 0.694210 0.515789 6.691120 -7.772723 2.569041 -18.675091 -8.983329 1.545762 2.853764 0.525972 1.793208 -6.839013 -12.145827 -109.221533 -69.620068 154.185151 14.368403 11.870957 2.497759 -10.358721 -1.838086 -1.479873 -7.180605 -12.170014 12.130263 48.731785 -46.071618 -101.367119 0.353531 0.611848 -12.221799 -4.816546 -24.157588 -2.455153 -4.366417 78.012133 -3.022425 11.142260 -11.172159 1.377711 0.000059 -0.001020 0.000026 7.396237 4.380321 2.592065 129.636547 65.613888 150.092939 3.915787 12.772860 5.268837 0.000442 0.002385 0.000196
-15.065520 126.908521 20.553437 -171.703749 -48.177657 -2.279686 -2.102268 26.199009 0.719482 -0.364536 4.356669 0.180207 -0.575850 6.976884 0.296317 -1.733294 21.469116 0.639087 0.423185 6.772332 -7.823903 2.467220 -18.631003 -9.043089 1.613139 3.062406 0.593656 1.592592 -7.087626 -12.151435 -109.838953 -69.489107 154.580305 14.651566 12.147880 3.743400 -10.320371 -1.753964 -1.493455 -7.195806 -12.193567 12.153166 48.891521 -46.285293 -101.457845 0.216595 0.594675 -12.077595 -4.815393 -24.145456 -2.459843 -4.375590 78.013601 -3.029709 11.127712 -11.175938 1.376878 -0.000898 -0.001437 -0.000398 7.396536 4.394244 2.589111 129.633370 65.614700 150.086414 3.919288 12.773314 5.273806 0.000132 0.003230 0.000058
-15.065440 126.909067 20.555455 -171.700213 -48.198303 -2.280664 -2.103723 26.204967 0.709907 -0.364068 4.323721 0.165938 -0.574256 6.931588 0.273916 -1.729468 21.490290 0.638619 0.316107 6.838377 -7.887282 2.359037 -18.573873 -9.096561 1.664064 3.255686 0.644655 1.360649 -7.351312 -12.145924 -110.314980 -69.267356 154.846535 14.912106 12.475017 5.175776 -10.293484 -1.689828 -1.525471 -7.209259 -12.226664 12.180890 49.098051 -46.571082 -101.570434 0.050174 0.551068 -11.859848 -4.817985 -24.125868 -2.463968 -4.384748 78.013716 -3.036502 11.124208 -11.177048 1.374072 -0.001008 -0.001172 -0.000447 7.398814 4.412138 2.589857 129.630455 65.613789 150.084903 3.928722 12.779633 5.252797 -0.000286 0.007169 -0.000127
-15.064878 126.909389 20.557836 -171.697663 -48.218850 -2.285102 -2.105800 26.157314 0.682939 -0.361318 4.372066 0.185144 -0.574089 6.927194 0.271824 -1.740847 21.455213 0.618139 0.202689 6.901307 -7.959257 2.246335 -18.504741 -9.147705 1.712335 3.434599 0.682731 1.041916 -7.658820 -12.134773 -110.464803 -68.952822 154.868932 15.110237 12.827582 6.716355 -10.238243 -1.654715 -1.610370 -7.257816 -12.242258 12.244141 49.350631 -46.932604 -101.695043 -0.153095 0.493474 -11.541810 -4.821093 -24.105851 -2.463994 -4.404102 78.011335 -3.051807 11.124531 -11.175975 1.370742 -0.000895 -0.000707 -0.000396 7.402683 4.427779 2.596109 129.631810 65.613284 150.089173 3.938614 12.789376 5.220510 -0.001111 0.012794 -0.000492
